<svg xmlns="http://www.w3.org/2000/svg" style="display:none">
<symbol id="file-text" viewBox="0 0 24 24">
<!-- @license lucide-static v0.563.0 - ISC -->

  <path d="M6 22a2 2 0 0 1-2-2V4a2 2 0 0 1 2-2h8a2.4 2.4 0 0 1 1.704.706l3.588 3.588A2.4 2.4 0 0 1 20 8v12a2 2 0 0 1-2 2z" />
  <path d="M14 2v5a1 1 0 0 0 1 1h5" />
  <path d="M10 9H8" />
  <path d="M16 13H8" />
  <path d="M16 17H8" />


</symbol>
<symbol id="scan-face" viewBox="0 0 24 24">
<!-- @license lucide-static v0.563.0 - ISC -->

  <path d="M3 7V5a2 2 0 0 1 2-2h2" />
  <path d="M17 3h2a2 2 0 0 1 2 2v2" />
  <path d="M21 17v2a2 2 0 0 1-2 2h-2" />
  <path d="M7 21H5a2 2 0 0 1-2-2v-2" />
  <path d="M8 14s1.5 2 4 2 4-2 4-2" />
  <path d="M9 9h.01" />
  <path d="M15 9h.01" />


</symbol>
<symbol id="globe" viewBox="0 0 24 24">
<!-- @license lucide-static v0.563.0 - ISC -->

  <circle cx="12" cy="12" r="10" />
  <path d="M12 2a14.5 14.5 0 0 0 0 20 14.5 14.5 0 0 0 0-20" />
  <path d="M2 12h20" />


</symbol>
<symbol id="bot" viewBox="0 0 24 24">
<!-- @license lucide-static v0.563.0 - ISC -->

  <path d="M12 8V4H8" />
  <rect width="16" height="12" x="4" y="8" rx="2" />
  <path d="M2 14h2" />
  <path d="M20 14h2" />
  <path d="M15 13v2" />
  <path d="M9 13v2" />


</symbol>
<symbol id="brain" viewBox="0 0 24 24">
<!-- @license lucide-static v0.563.0 - ISC -->

  <path d="M12 18V5" />
  <path d="M15 13a4.17 4.17 0 0 1-3-4 4.17 4.17 0 0 1-3 4" />
  <path d="M17.598 6.5A3 3 0 1 0 12 5a3 3 0 1 0-5.598 1.5" />
  <path d="M17.997 5.125a4 4 0 0 1 2.526 5.77" />
  <path d="M18 18a4 4 0 0 0 2-7.464" />
  <path d="M19.967 17.483A4 4 0 1 1 12 18a4 4 0 1 1-7.967-.517" />
  <path d="M6 18a4 4 0 0 1-2-7.464" />
  <path d="M6.003 5.125a4 4 0 0 0-2.526 5.77" />


</symbol>
<symbol id="sparkle" viewBox="0 0 24 24">
<!-- @license lucide-static v0.563.0 - ISC -->

  <path d="M11.017 2.814a1 1 0 0 1 1.966 0l1.051 5.558a2 2 0 0 0 1.594 1.594l5.558 1.051a1 1 0 0 1 0 1.966l-5.558 1.051a2 2 0 0 0-1.594 1.594l-1.051 5.558a1 1 0 0 1-1.966 0l-1.051-5.558a2 2 0 0 0-1.594-1.594l-5.558-1.051a1 1 0 0 1 0-1.966l5.558-1.051a2 2 0 0 0 1.594-1.594z" />


</symbol>
<symbol id="book-open" viewBox="0 0 24 24">
<!-- @license lucide-static v0.563.0 - ISC -->

  <path d="M12 7v14" />
  <path d="M3 18a1 1 0 0 1-1-1V4a1 1 0 0 1 1-1h5a4 4 0 0 1 4 4 4 4 0 0 1 4-4h5a1 1 0 0 1 1 1v13a1 1 0 0 1-1 1h-6a3 3 0 0 0-3 3 3 3 0 0 0-3-3z" />


</symbol>
<symbol id="server" viewBox="0 0 24 24">
<!-- @license lucide-static v0.563.0 - ISC -->

  <rect width="20" height="8" x="2" y="2" rx="2" ry="2" />
  <rect width="20" height="8" x="2" y="14" rx="2" ry="2" />
  <line x1="6" x2="6.01" y1="6" y2="6" />
  <line x1="6" x2="6.01" y1="18" y2="18" />


</symbol>
<symbol id="search" viewBox="0 0 24 24">
<!-- @license lucide-static v0.563.0 - ISC -->

  <path d="m21 21-4.34-4.34" />
  <circle cx="11" cy="11" r="8" />


</symbol>
<symbol id="scan" viewBox="0 0 24 24">
<!-- @license lucide-static v0.563.0 - ISC -->

  <path d="M3 7V5a2 2 0 0 1 2-2h2" />
  <path d="M17 3h2a2 2 0 0 1 2 2v2" />
  <path d="M21 17v2a2 2 0 0 1-2 2h-2" />
  <path d="M7 21H5a2 2 0 0 1-2-2v-2" />


</symbol>
<symbol id="barcode" viewBox="0 0 24 24">
<!-- @license lucide-static v0.563.0 - ISC -->

  <path d="M3 5v14" />
  <path d="M8 5v14" />
  <path d="M12 5v14" />
  <path d="M17 5v14" />
  <path d="M21 5v14" />


</symbol>
<symbol id="wand" viewBox="0 0 24 24">
<!-- @license lucide-static v0.563.0 - ISC -->

  <path d="M15 4V2" />
  <path d="M15 16v-2" />
  <path d="M8 9h2" />
  <path d="M20 9h2" />
  <path d="M17.8 11.8 19 13" />
  <path d="M15 9h.01" />
  <path d="M17.8 6.2 19 5" />
  <path d="m3 21 9-9" />
  <path d="M12.2 6.2 11 5" />


</symbol>
<symbol id="heart" viewBox="0 0 24 24">
<!-- @license lucide-static v0.563.0 - ISC -->

  <path d="M2 9.5a5.5 5.5 0 0 1 9.591-3.676.56.56 0 0 0 .818 0A5.49 5.49 0 0 1 22 9.5c0 2.29-1.5 4-3 5.5l-5.492 5.313a2 2 0 0 1-3 .019L5 15c-1.5-1.5-3-3.2-3-5.5" />


</symbol>
<symbol id="activity" viewBox="0 0 24 24">
<!-- @license lucide-static v0.563.0 - ISC -->

  <path d="M22 12h-2.48a2 2 0 0 0-1.93 1.46l-2.35 8.36a.25.25 0 0 1-.48 0L9.24 2.18a.25.25 0 0 0-.48 0l-2.35 8.36A2 2 0 0 1 4.49 12H2" />


</symbol>
<symbol id="replace" viewBox="0 0 24 24">
<!-- @license lucide-static v0.563.0 - ISC -->

  <path d="M14 4a1 1 0 0 1 1-1" />
  <path d="M15 10a1 1 0 0 1-1-1" />
  <path d="M21 4a1 1 0 0 0-1-1" />
  <path d="M21 9a1 1 0 0 1-1 1" />
  <path d="m3 7 3 3 3-3" />
  <path d="M6 10V5a2 2 0 0 1 2-2h2" />
  <rect x="3" y="14" width="7" height="7" rx="1" />


</symbol>
<symbol id="external-link" viewBox="0 0 24 24">
<!-- @license lucide-static v0.563.0 - ISC -->

  <path d="M15 3h6v6" />
  <path d="M10 14 21 3" />
  <path d="M18 13v6a2 2 0 0 1-2 2H5a2 2 0 0 1-2-2V8a2 2 0 0 1 2-2h6" />


</symbol>
<symbol id="id-card" viewBox="0 0 24 24">
<!-- @license lucide-static v0.563.0 - ISC -->

  <path d="M16 10h2" />
  <path d="M16 14h2" />
  <path d="M6.17 15a3 3 0 0 1 5.66 0" />
  <circle cx="9" cy="11" r="2" />
  <rect x="2" y="5" width="20" height="14" rx="2" />


</symbol>
<symbol id="calendar-range" viewBox="0 0 24 24">
<!-- @license lucide-static v0.563.0 - ISC -->

  <rect width="18" height="18" x="3" y="4" rx="2" />
  <path d="M16 2v4" />
  <path d="M3 10h18" />
  <path d="M8 2v4" />
  <path d="M17 14h-6" />
  <path d="M13 18H7" />
  <path d="M7 14h.01" />
  <path d="M17 18h.01" />


</symbol>
<symbol id="text" viewBox="0 0 24 24">
<!-- @license lucide-static v0.563.0 - ISC -->

  <path d="M21 5H3" />
  <path d="M15 12H3" />
  <path d="M17 19H3" />


</symbol>
<symbol id="briefcase-business" viewBox="0 0 24 24">
<!-- @license lucide-static v0.563.0 - ISC -->

  <path d="M12 12h.01" />
  <path d="M16 6V4a2 2 0 0 0-2-2h-4a2 2 0 0 0-2 2v2" />
  <path d="M22 13a18.15 18.15 0 0 1-20 0" />
  <rect width="20" height="14" x="2" y="6" rx="2" />


</symbol>
<symbol id="mail" viewBox="0 0 24 24">
<!-- @license lucide-static v0.563.0 - ISC -->

  <path d="m22 7-8.991 5.727a2 2 0 0 1-2.009 0L2 7" />
  <rect x="2" y="4" width="20" height="16" rx="2" />


</symbol>
<symbol id="file-spreadsheet" viewBox="0 0 24 24">
<!-- @license lucide-static v0.563.0 - ISC -->

  <path d="M6 22a2 2 0 0 1-2-2V4a2 2 0 0 1 2-2h8a2.4 2.4 0 0 1 1.704.706l3.588 3.588A2.4 2.4 0 0 1 20 8v12a2 2 0 0 1-2 2z" />
  <path d="M14 2v5a1 1 0 0 0 1 1h5" />
  <path d="M8 13h2" />
  <path d="M14 13h2" />
  <path d="M8 17h2" />
  <path d="M14 17h2" />


</symbol>
<symbol id="arrow-left-right" viewBox="0 0 24 24">
<!-- @license lucide-static v0.563.0 - ISC -->

  <path d="M8 3 4 7l4 4" />
  <path d="M4 7h16" />
  <path d="m16 21 4-4-4-4" />
  <path d="M20 17H4" />


</symbol>
<symbol id="wallet" viewBox="0 0 24 24">
<!-- @license lucide-static v0.563.0 - ISC -->

  <path d="M19 7V4a1 1 0 0 0-1-1H5a2 2 0 0 0 0 4h15a1 1 0 0 1 1 1v4h-3a2 2 0 0 0 0 4h3a1 1 0 0 0 1-1v-2a1 1 0 0 0-1-1" />
  <path d="M3 5v14a2 2 0 0 0 2 2h15a1 1 0 0 0 1-1v-4" />


</symbol>
<symbol id="smile" viewBox="0 0 24 24">
<!-- @license lucide-static v0.563.0 - ISC -->

  <circle cx="12" cy="12" r="10" />
  <path d="M8 14s1.5 2 4 2 4-2 4-2" />
  <line x1="9" x2="9.01" y1="9" y2="9" />
  <line x1="15" x2="15.01" y1="9" y2="9" />


</symbol>
<symbol id="lock" viewBox="0 0 24 24">
<!-- @license lucide-static v0.563.0 - ISC -->

  <rect width="18" height="11" x="3" y="11" rx="2" ry="2" />
  <path d="M7 11V7a5 5 0 0 1 10 0v4" />


</symbol>
<symbol id="calendar" viewBox="0 0 24 24">
<!-- @license lucide-static v0.563.0 - ISC -->

  <path d="M8 2v4" />
  <path d="M16 2v4" />
  <rect width="18" height="18" x="3" y="4" rx="2" />
  <path d="M3 10h18" />


</symbol>
<symbol id="help-circle" viewBox="0 0 24 24">
<!-- @license lucide-static v0.563.0 - ISC -->

  <circle cx="12" cy="12" r="10" />
  <path d="M9.09 9a3 3 0 0 1 5.83 1c0 2-3 3-3 3" />
  <path d="M12 17h.01" />


</symbol>
<symbol id="megaphone" viewBox="0 0 24 24">
<!-- @license lucide-static v0.563.0 - ISC -->

  <path d="M11 6a13 13 0 0 0 8.4-2.8A1 1 0 0 1 21 4v12a1 1 0 0 1-1.6.8A13 13 0 0 0 11 14H5a2 2 0 0 1-2-2V8a2 2 0 0 1 2-2z" />
  <path d="M6 14a12 12 0 0 0 2.4 7.2 2 2 0 0 0 3.2-2.4A8 8 0 0 1 10 14" />
  <path d="M8 6v8" />


</symbol>
<symbol id="user" viewBox="0 0 24 24">
<!-- @license lucide-static v0.563.0 - ISC -->

  <path d="M19 21v-2a4 4 0 0 0-4-4H9a4 4 0 0 0-4 4v2" />
  <circle cx="12" cy="7" r="4" />


</symbol>
<symbol id="chart-bar" viewBox="0 0 24 24">
<!-- @license lucide-static v0.563.0 - ISC -->

  <path d="M3 3v16a2 2 0 0 0 2 2h16" />
  <path d="M7 16h8" />
  <path d="M7 11h12" />
  <path d="M7 6h3" />


</symbol>
<symbol id="workflow" viewBox="0 0 24 24">
<!-- @license lucide-static v0.563.0 - ISC -->

  <rect width="8" height="8" x="3" y="3" rx="2" />
  <path d="M7 11v4a2 2 0 0 0 2 2h4" />
  <rect width="8" height="8" x="13" y="13" rx="2" />


</symbol>
<symbol id="clock" viewBox="0 0 24 24">
<!-- @license lucide-static v0.563.0 - ISC -->

  <path d="M12 6v6l4 2" />
  <circle cx="12" cy="12" r="10" />


</symbol>
<symbol id="form" viewBox="0 0 24 24">
<!-- @license lucide-static v0.563.0 - ISC -->

  <path d="M4 14h6" />
  <path d="M4 2h10" />
  <rect x="4" y="18" width="16" height="4" rx="1" />
  <rect x="4" y="6" width="16" height="4" rx="1" />


</symbol>
<symbol id="coins" viewBox="0 0 24 24">
<!-- @license lucide-static v0.563.0 - ISC -->

  <circle cx="8" cy="8" r="6" />
  <path d="M18.09 10.37A6 6 0 1 1 10.34 18" />
  <path d="M7 6h1v4" />
  <path d="m16.71 13.88.7.71-2.82 2.82" />


</symbol>
<symbol id="palette" viewBox="0 0 24 24">
<!-- @license lucide-static v0.563.0 - ISC -->

  <path d="M12 22a1 1 0 0 1 0-20 10 9 0 0 1 10 9 5 5 0 0 1-5 5h-2.25a1.75 1.75 0 0 0-1.4 2.8l.3.4a1.75 1.75 0 0 1-1.4 2.8z" />
  <circle cx="13.5" cy="6.5" r=".5" fill="currentColor" />
  <circle cx="17.5" cy="10.5" r=".5" fill="currentColor" />
  <circle cx="6.5" cy="12.5" r=".5" fill="currentColor" />
  <circle cx="8.5" cy="7.5" r=".5" fill="currentColor" />


</symbol>
<symbol id="spell-check" viewBox="0 0 24 24">
<!-- @license lucide-static v0.563.0 - ISC -->

  <path d="m6 16 6-12 6 12" />
  <path d="M8 12h8" />
  <path d="m16 20 2 2 4-4" />


</symbol>
<symbol id="spray-can" viewBox="0 0 24 24">
<!-- @license lucide-static v0.563.0 - ISC -->

  <path d="M3 3h.01" />
  <path d="M7 5h.01" />
  <path d="M11 7h.01" />
  <path d="M3 7h.01" />
  <path d="M7 9h.01" />
  <path d="M3 11h.01" />
  <rect width="4" height="4" x="15" y="5" />
  <path d="m19 9 2 2v10c0 .6-.4 1-1 1h-6c-.6 0-1-.4-1-1V11l2-2" />
  <path d="m13 14 8-2" />
  <path d="m13 19 8-2" />


</symbol>
<symbol id="heart-plus" viewBox="0 0 24 24">
<!-- @license lucide-static v0.563.0 - ISC -->

  <path d="m14.479 19.374-.971.939a2 2 0 0 1-3 .019L5 15c-1.5-1.5-3-3.2-3-5.5a5.5 5.5 0 0 1 9.591-3.676.56.56 0 0 0 .818 0A5.49 5.49 0 0 1 22 9.5a5.2 5.2 0 0 1-.219 1.49" />
  <path d="M15 15h6" />
  <path d="M18 12v6" />


</symbol>
<symbol id="star" viewBox="0 0 24 24">
<!-- @license lucide-static v0.563.0 - ISC -->

  <path d="M11.525 2.295a.53.53 0 0 1 .95 0l2.31 4.679a2.123 2.123 0 0 0 1.595 1.16l5.166.756a.53.53 0 0 1 .294.904l-3.736 3.638a2.123 2.123 0 0 0-.611 1.878l.882 5.14a.53.53 0 0 1-.771.56l-4.618-2.428a2.122 2.122 0 0 0-1.973 0L6.396 21.01a.53.53 0 0 1-.77-.56l.881-5.139a2.122 2.122 0 0 0-.611-1.879L2.16 9.795a.53.53 0 0 1 .294-.906l5.165-.755a2.122 2.122 0 0 0 1.597-1.16z" />


</symbol>
<symbol id="network" viewBox="0 0 24 24">
<!-- @license lucide-static v0.563.0 - ISC -->

  <rect x="16" y="16" width="6" height="6" rx="1" />
  <rect x="2" y="16" width="6" height="6" rx="1" />
  <rect x="9" y="2" width="6" height="6" rx="1" />
  <path d="M5 16v-3a1 1 0 0 1 1-1h12a1 1 0 0 1 1 1v3" />
  <path d="M12 12V8" />


</symbol>
<symbol id="image" viewBox="0 0 24 24">
<!-- @license lucide-static v0.563.0 - ISC -->

  <rect width="18" height="18" x="3" y="3" rx="2" ry="2" />
  <circle cx="9" cy="9" r="2" />
  <path d="m21 15-3.086-3.086a2 2 0 0 0-2.828 0L6 21" />


</symbol>
<symbol id="crop" viewBox="0 0 24 24">
<!-- @license lucide-static v0.563.0 - ISC -->

  <path d="M6 2v14a2 2 0 0 0 2 2h14" />
  <path d="M18 22V8a2 2 0 0 0-2-2H2" />


</symbol>
<symbol id="film" viewBox="0 0 24 24">
<!-- @license lucide-static v0.563.0 - ISC -->

  <rect width="18" height="18" x="3" y="3" rx="2" />
  <path d="M7 3v18" />
  <path d="M3 7.5h4" />
  <path d="M3 12h18" />
  <path d="M3 16.5h4" />
  <path d="M17 3v18" />
  <path d="M17 7.5h4" />
  <path d="M17 16.5h4" />


</symbol>
<symbol id="gauge" viewBox="0 0 24 24">
<!-- @license lucide-static v0.563.0 - ISC -->

  <path d="m12 14 4-4" />
  <path d="M3.34 19a10 10 0 1 1 17.32 0" />


</symbol>
<symbol id="book" viewBox="0 0 24 24">
<!-- @license lucide-static v0.563.0 - ISC -->

  <path d="M4 19.5v-15A2.5 2.5 0 0 1 6.5 2H19a1 1 0 0 1 1 1v18a1 1 0 0 1-1 1H6.5a1 1 0 0 1 0-5H20" />


</symbol>
<symbol id="link" viewBox="0 0 24 24">
<!-- @license lucide-static v0.563.0 - ISC -->

  <path d="M10 13a5 5 0 0 0 7.54.54l3-3a5 5 0 0 0-7.07-7.07l-1.72 1.71" />
  <path d="M14 11a5 5 0 0 0-7.54-.54l-3 3a5 5 0 0 0 7.07 7.07l1.71-1.71" />


</symbol>
<symbol id="credit-card" viewBox="0 0 24 24">
<!-- @license lucide-static v0.563.0 - ISC -->

  <rect width="20" height="14" x="2" y="5" rx="2" />
  <line x1="2" x2="22" y1="10" y2="10" />


</symbol>
<symbol id="pen-tool" viewBox="0 0 24 24">
<!-- @license lucide-static v0.563.0 - ISC -->

  <path d="M15.707 21.293a1 1 0 0 1-1.414 0l-1.586-1.586a1 1 0 0 1 0-1.414l5.586-5.586a1 1 0 0 1 1.414 0l1.586 1.586a1 1 0 0 1 0 1.414z" />
  <path d="m18 13-1.375-6.874a1 1 0 0 0-.746-.776L3.235 2.028a1 1 0 0 0-1.207 1.207L5.35 15.879a1 1 0 0 0 .776.746L13 18" />
  <path d="m2.3 2.3 7.286 7.286" />
  <circle cx="11" cy="11" r="2" />


</symbol>
<symbol id="trending-up" viewBox="0 0 24 24">
<!-- @license lucide-static v0.563.0 - ISC -->

  <path d="M16 7h6v6" />
  <path d="m22 7-8.5 8.5-5-5L2 17" />


</symbol>
<symbol id="edit" viewBox="0 0 24 24">
<!-- @license lucide-static v0.563.0 - ISC -->

  <path d="M12 3H5a2 2 0 0 0-2 2v14a2 2 0 0 0 2 2h14a2 2 0 0 0 2-2v-7" />
  <path d="M18.375 2.625a1 1 0 0 1 3 3l-9.013 9.014a2 2 0 0 1-.853.505l-2.873.84a.5.5 0 0 1-.62-.62l.84-2.873a2 2 0 0 1 .506-.852z" />


</symbol>
<symbol id="calendar-clock" viewBox="0 0 24 24">
<!-- @license lucide-static v0.563.0 - ISC -->

  <path d="M16 14v2.2l1.6 1" />
  <path d="M16 2v4" />
  <path d="M21 7.5V6a2 2 0 0 0-2-2H5a2 2 0 0 0-2 2v14a2 2 0 0 0 2 2h3.5" />
  <path d="M3 10h5" />
  <path d="M8 2v4" />
  <circle cx="16" cy="16" r="6" />


</symbol>
<symbol id="bell" viewBox="0 0 24 24">
<!-- @license lucide-static v0.563.0 - ISC -->

  <path d="M10.268 21a2 2 0 0 0 3.464 0" />
  <path d="M3.262 15.326A1 1 0 0 0 4 17h16a1 1 0 0 0 .74-1.673C19.41 13.956 18 12.499 18 8A6 6 0 0 0 6 8c0 4.499-1.411 5.956-2.738 7.326" />


</symbol>
<symbol id="package-search" viewBox="0 0 24 24">
<!-- @license lucide-static v0.563.0 - ISC -->

  <path d="M21 10V8a2 2 0 0 0-1-1.73l-7-4a2 2 0 0 0-2 0l-7 4A2 2 0 0 0 3 8v8a2 2 0 0 0 1 1.73l7 4a2 2 0 0 0 2 0l2-1.14" />
  <path d="m7.5 4.27 9 5.15" />
  <polyline points="3.29 7 12 12 20.71 7" />
  <line x1="12" x2="12" y1="22" y2="12" />
  <circle cx="18.5" cy="15.5" r="2.5" />
  <path d="M20.27 17.27 22 19" />


</symbol>
<symbol id="move-vertical" viewBox="0 0 24 24">
<!-- @license lucide-static v0.563.0 - ISC -->

  <path d="M12 2v20" />
  <path d="m8 18 4 4 4-4" />
  <path d="m8 6 4-4 4 4" />


</symbol>
<symbol id="refresh-cw" viewBox="0 0 24 24">
<!-- @license lucide-static v0.563.0 - ISC -->

  <path d="M3 12a9 9 0 0 1 9-9 9.75 9.75 0 0 1 6.74 2.74L21 8" />
  <path d="M21 3v5h-5" />
  <path d="M21 12a9 9 0 0 1-9 9 9.75 9.75 0 0 1-6.74-2.74L3 16" />
  <path d="M8 16H3v5" />


</symbol>
<symbol id="file-pen-line" viewBox="0 0 24 24">
<!-- @license lucide-static v0.563.0 - ISC -->

  <path d="m18.226 5.226-2.52-2.52A2.4 2.4 0 0 0 14 2H6a2 2 0 0 0-2 2v16a2 2 0 0 0 2 2h12a2 2 0 0 0 2-2v-.351" />
  <path d="M21.378 12.626a1 1 0 0 0-3.004-3.004l-4.01 4.012a2 2 0 0 0-.506.854l-.837 2.87a.5.5 0 0 0 .62.62l2.87-.837a2 2 0 0 0 .854-.506z" />
  <path d="M8 18h1" />


</symbol>
<symbol id="files" viewBox="0 0 24 24">
<!-- @license lucide-static v0.563.0 - ISC -->

  <path d="M15 2h-4a2 2 0 0 0-2 2v11a2 2 0 0 0 2 2h8a2 2 0 0 0 2-2V8" />
  <path d="M16.706 2.706A2.4 2.4 0 0 0 15 2v5a1 1 0 0 0 1 1h5a2.4 2.4 0 0 0-.706-1.706z" />
  <path d="M5 7a2 2 0 0 0-2 2v11a2 2 0 0 0 2 2h8a2 2 0 0 0 1.732-1" />


</symbol>
<symbol id="shield-check" viewBox="0 0 24 24">
<!-- @license lucide-static v0.563.0 - ISC -->

  <path d="M20 13c0 5-3.5 7.5-7.66 8.95a1 1 0 0 1-.67-.01C7.5 20.5 4 18 4 13V6a1 1 0 0 1 1-1c2 0 4.5-1.2 6.24-2.72a1.17 1.17 0 0 1 1.52 0C14.51 3.81 17 5 19 5a1 1 0 0 1 1 1z" />
  <path d="m9 12 2 2 4-4" />


</symbol>
<symbol id="file-lock" viewBox="0 0 24 24">
<!-- @license lucide-static v0.563.0 - ISC -->

  <path d="M4 9.8V4a2 2 0 0 1 2-2h8a2.4 2.4 0 0 1 1.706.706l3.588 3.588A2.4 2.4 0 0 1 20 8v12a2 2 0 0 1-2 2h-3" />
  <path d="M14 2v5a1 1 0 0 0 1 1h5" />
  <path d="M9 17v-2a2 2 0 0 0-4 0v2" />
  <rect width="8" height="5" x="3" y="17" rx="1" />


</symbol>
<symbol id="paw-print" viewBox="0 0 24 24">
<!-- @license lucide-static v0.563.0 - ISC -->

  <circle cx="11" cy="4" r="2" />
  <circle cx="18" cy="8" r="2" />
  <circle cx="20" cy="16" r="2" />
  <path d="M9 10a5 5 0 0 1 5 5v3.5a3.5 3.5 0 0 1-6.84 1.045Q6.52 17.48 4.46 16.84A3.5 3.5 0 0 1 5.5 10Z" />


</symbol>
<symbol id="leaf" viewBox="0 0 24 24">
<!-- @license lucide-static v0.563.0 - ISC -->

  <path d="M11 20A7 7 0 0 1 9.8 6.1C15.5 5 17 4.48 19 2c1 2 2 4.18 2 8 0 5.5-4.78 10-10 10Z" />
  <path d="M2 21c0-3 1.85-5.36 5.08-6C9.5 14.52 12 13 13 12" />


</symbol>
<symbol id="chart-bar-big" viewBox="0 0 24 24">
<!-- @license lucide-static v0.563.0 - ISC -->

  <path d="M3 3v16a2 2 0 0 0 2 2h16" />
  <rect x="7" y="13" width="9" height="4" rx="1" />
  <rect x="7" y="5" width="12" height="4" rx="1" />


</symbol>
<symbol id="timer" viewBox="0 0 24 24">
<!-- @license lucide-static v0.563.0 - ISC -->

  <line x1="10" x2="14" y1="2" y2="2" />
  <line x1="12" x2="15" y1="14" y2="11" />
  <circle cx="12" cy="14" r="8" />


</symbol>
<symbol id="calculator" viewBox="0 0 24 24">
<!-- @license lucide-static v0.563.0 - ISC -->

  <rect width="16" height="20" x="4" y="2" rx="2" />
  <line x1="8" x2="16" y1="6" y2="6" />
  <line x1="16" x2="16" y1="14" y2="18" />
  <path d="M16 10h.01" />
  <path d="M12 10h.01" />
  <path d="M8 10h.01" />
  <path d="M12 14h.01" />
  <path d="M8 14h.01" />
  <path d="M12 18h.01" />
  <path d="M8 18h.01" />


</symbol>
<symbol id="image-plus" viewBox="0 0 24 24">
<!-- @license lucide-static v0.563.0 - ISC -->

  <path d="M16 5h6" />
  <path d="M19 2v6" />
  <path d="M21 11.5V19a2 2 0 0 1-2 2H5a2 2 0 0 1-2-2V5a2 2 0 0 1 2-2h7.5" />
  <path d="m21 15-3.086-3.086a2 2 0 0 0-2.828 0L6 21" />
  <circle cx="9" cy="9" r="2" />


</symbol>
<symbol id="qr-code" viewBox="0 0 24 24">
<!-- @license lucide-static v0.563.0 - ISC -->

  <rect width="5" height="5" x="3" y="3" rx="1" />
  <rect width="5" height="5" x="16" y="3" rx="1" />
  <rect width="5" height="5" x="3" y="16" rx="1" />
  <path d="M21 16h-3a2 2 0 0 0-2 2v3" />
  <path d="M21 21v.01" />
  <path d="M12 7v3a2 2 0 0 1-2 2H7" />
  <path d="M3 12h.01" />
  <path d="M12 3h.01" />
  <path d="M12 16v.01" />
  <path d="M16 12h1" />
  <path d="M21 12v.01" />
  <path d="M12 21v-1" />


</symbol>
<symbol id="scan-line" viewBox="0 0 24 24">
<!-- @license lucide-static v0.563.0 - ISC -->

  <path d="M3 7V5a2 2 0 0 1 2-2h2" />
  <path d="M17 3h2a2 2 0 0 1 2 2v2" />
  <path d="M21 17v2a2 2 0 0 1-2 2h-2" />
  <path d="M7 21H5a2 2 0 0 1-2-2v-2" />
  <path d="M7 12h10" />


</symbol>
<symbol id="clipboard-list" viewBox="0 0 24 24">
<!-- @license lucide-static v0.563.0 - ISC -->

  <rect width="8" height="4" x="8" y="2" rx="1" ry="1" />
  <path d="M16 4h2a2 2 0 0 1 2 2v14a2 2 0 0 1-2 2H6a2 2 0 0 1-2-2V6a2 2 0 0 1 2-2h2" />
  <path d="M12 11h4" />
  <path d="M12 16h4" />
  <path d="M8 11h.01" />
  <path d="M8 16h.01" />


</symbol>
<symbol id="laugh" viewBox="0 0 24 24">
<!-- @license lucide-static v0.563.0 - ISC -->

  <circle cx="12" cy="12" r="10" />
  <path d="M18 13a6 6 0 0 1-6 5 6 6 0 0 1-6-5h12Z" />
  <line x1="9" x2="9.01" y1="9" y2="9" />
  <line x1="15" x2="15.01" y1="9" y2="9" />


</symbol>
<symbol id="shuffle" viewBox="0 0 24 24">
<!-- @license lucide-static v0.563.0 - ISC -->

  <path d="m18 14 4 4-4 4" />
  <path d="m18 2 4 4-4 4" />
  <path d="M2 18h1.973a4 4 0 0 0 3.3-1.7l5.454-8.6a4 4 0 0 1 3.3-1.7H22" />
  <path d="M2 6h1.972a4 4 0 0 1 3.6 2.2" />
  <path d="M22 18h-6.041a4 4 0 0 1-3.3-1.8l-.359-.45" />


</symbol>
<symbol id="quote" viewBox="0 0 24 24">
<!-- @license lucide-static v0.563.0 - ISC -->

  <path d="M16 3a2 2 0 0 0-2 2v6a2 2 0 0 0 2 2 1 1 0 0 1 1 1v1a2 2 0 0 1-2 2 1 1 0 0 0-1 1v2a1 1 0 0 0 1 1 6 6 0 0 0 6-6V5a2 2 0 0 0-2-2z" />
  <path d="M5 3a2 2 0 0 0-2 2v6a2 2 0 0 0 2 2 1 1 0 0 1 1 1v1a2 2 0 0 1-2 2 1 1 0 0 0-1 1v2a1 1 0 0 0 1 1 6 6 0 0 0 6-6V5a2 2 0 0 0-2-2z" />


</symbol>
<symbol id="lightbulb" viewBox="0 0 24 24">
<!-- @license lucide-static v0.563.0 - ISC -->

  <path d="M15 14c.2-1 .7-1.7 1.5-2.5 1-.9 1.5-2.2 1.5-3.5A6 6 0 0 0 6 8c0 1 .2 2.2 1.5 3.5.7.7 1.3 1.5 1.5 2.5" />
  <path d="M9 18h6" />
  <path d="M10 22h4" />


</symbol>
<symbol id="file-code" viewBox="0 0 24 24">
<!-- @license lucide-static v0.563.0 - ISC -->

  <path d="M6 22a2 2 0 0 1-2-2V4a2 2 0 0 1 2-2h8a2.4 2.4 0 0 1 1.704.706l3.588 3.588A2.4 2.4 0 0 1 20 8v12a2 2 0 0 1-2 2z" />
  <path d="M14 2v5a1 1 0 0 0 1 1h5" />
  <path d="M10 12.5 8 15l2 2.5" />
  <path d="m14 12.5 2 2.5-2 2.5" />


</symbol>
<symbol id="music" viewBox="0 0 24 24">
<!-- @license lucide-static v0.563.0 - ISC -->

  <path d="M9 18V5l12-2v13" />
  <circle cx="6" cy="18" r="3" />
  <circle cx="18" cy="16" r="3" />


</symbol>
<symbol id="regex" viewBox="0 0 24 24">
<!-- @license lucide-static v0.563.0 - ISC -->

  <path d="M17 3v10" />
  <path d="m12.67 5.5 8.66 5" />
  <path d="m12.67 10.5 8.66-5" />
  <path d="M9 17a2 2 0 0 0-2-2H5a2 2 0 0 0-2 2v2a2 2 0 0 0 2 2h2a2 2 0 0 0 2-2v-2z" />


</symbol>
<symbol id="heart-handshake" viewBox="0 0 24 24">
<!-- @license lucide-static v0.563.0 - ISC -->

  <path d="M19.414 14.414C21 12.828 22 11.5 22 9.5a5.5 5.5 0 0 0-9.591-3.676.6.6 0 0 1-.818.001A5.5 5.5 0 0 0 2 9.5c0 2.3 1.5 4 3 5.5l5.535 5.362a2 2 0 0 0 2.879.052 2.12 2.12 0 0 0-.004-3 2.124 2.124 0 1 0 3-3 2.124 2.124 0 0 0 3.004 0 2 2 0 0 0 0-2.828l-1.881-1.882a2.41 2.41 0 0 0-3.409 0l-1.71 1.71a2 2 0 0 1-2.828 0 2 2 0 0 1 0-2.828l2.823-2.762" />


</symbol>
<symbol id="video" viewBox="0 0 24 24">
<!-- @license lucide-static v0.563.0 - ISC -->

  <path d="m16 13 5.223 3.482a.5.5 0 0 0 .777-.416V7.87a.5.5 0 0 0-.752-.432L16 10.5" />
  <rect x="2" y="6" width="14" height="12" rx="2" />


</symbol>
<symbol id="layers" viewBox="0 0 24 24">
<!-- @license lucide-static v0.563.0 - ISC -->

  <path d="M12.83 2.18a2 2 0 0 0-1.66 0L2.6 6.08a1 1 0 0 0 0 1.83l8.58 3.91a2 2 0 0 0 1.66 0l8.58-3.9a1 1 0 0 0 0-1.83z" />
  <path d="M2 12a1 1 0 0 0 .58.91l8.6 3.91a2 2 0 0 0 1.65 0l8.58-3.9A1 1 0 0 0 22 12" />
  <path d="M2 17a1 1 0 0 0 .58.91l8.6 3.91a2 2 0 0 0 1.65 0l8.58-3.9A1 1 0 0 0 22 17" />


</symbol>
<symbol id="droplet" viewBox="0 0 24 24">
<!-- @license lucide-static v0.563.0 - ISC -->

  <path d="M12 22a7 7 0 0 0 7-7c0-2-1-3.9-3-5.5s-3.5-4-4-6.5c-.5 2.5-2 4.9-4 6.5C6 11.1 5 13 5 15a7 7 0 0 0 7 7z" />


</symbol>
<symbol id="mic" viewBox="0 0 24 24">
<!-- @license lucide-static v0.563.0 - ISC -->

  <path d="M12 19v3" />
  <path d="M19 10v2a7 7 0 0 1-14 0v-2" />
  <rect x="9" y="2" width="6" height="13" rx="3" />


</symbol>
<symbol id="shield-alert" viewBox="0 0 24 24">
<!-- @license lucide-static v0.563.0 - ISC -->

  <path d="M20 13c0 5-3.5 7.5-7.66 8.95a1 1 0 0 1-.67-.01C7.5 20.5 4 18 4 13V6a1 1 0 0 1 1-1c2 0 4.5-1.2 6.24-2.72a1.17 1.17 0 0 1 1.52 0C14.51 3.81 17 5 19 5a1 1 0 0 1 1 1z" />
  <path d="M12 8v4" />
  <path d="M12 16h.01" />


</symbol>
<symbol id="footprints" viewBox="0 0 24 24">
<!-- @license lucide-static v0.563.0 - ISC -->

  <path d="M4 16v-2.38C4 11.5 2.97 10.5 3 8c.03-2.72 1.49-6 4.5-6C9.37 2 10 3.8 10 5.5c0 3.11-2 5.66-2 8.68V16a2 2 0 1 1-4 0Z" />
  <path d="M20 20v-2.38c0-2.12 1.03-3.12 1-5.62-.03-2.72-1.49-6-4.5-6C14.63 6 14 7.8 14 9.5c0 3.11 2 5.66 2 8.68V20a2 2 0 1 0 4 0Z" />
  <path d="M16 17h4" />
  <path d="M4 13h4" />


</symbol>
<symbol id="list-checks" viewBox="0 0 24 24">
<!-- @license lucide-static v0.563.0 - ISC -->

  <path d="M13 5h8" />
  <path d="M13 12h8" />
  <path d="M13 19h8" />
  <path d="m3 17 2 2 4-4" />
  <path d="m3 7 2 2 4-4" />


</symbol>
<symbol id="scan-text" viewBox="0 0 24 24">
<!-- @license lucide-static v0.563.0 - ISC -->

  <path d="M3 7V5a2 2 0 0 1 2-2h2" />
  <path d="M17 3h2a2 2 0 0 1 2 2v2" />
  <path d="M21 17v2a2 2 0 0 1-2 2h-2" />
  <path d="M7 21H5a2 2 0 0 1-2-2v-2" />
  <path d="M7 8h8" />
  <path d="M7 12h10" />
  <path d="M7 16h6" />


</symbol>
<symbol id="languages" viewBox="0 0 24 24">
<!-- @license lucide-static v0.563.0 - ISC -->

  <path d="m5 8 6 6" />
  <path d="m4 14 6-6 2-3" />
  <path d="M2 5h12" />
  <path d="M7 2h1" />
  <path d="m22 22-5-10-5 10" />
  <path d="M14 18h6" />


</symbol>
<symbol id="check-square" viewBox="0 0 24 24">
<!-- @license lucide-static v0.563.0 - ISC -->

  <path d="M21 10.656V19a2 2 0 0 1-2 2H5a2 2 0 0 1-2-2V5a2 2 0 0 1 2-2h12.344" />
  <path d="m9 11 3 3L22 4" />


</symbol>
<symbol id="keyboard" viewBox="0 0 24 24">
<!-- @license lucide-static v0.563.0 - ISC -->

  <path d="M10 8h.01" />
  <path d="M12 12h.01" />
  <path d="M14 8h.01" />
  <path d="M16 12h.01" />
  <path d="M18 8h.01" />
  <path d="M6 8h.01" />
  <path d="M7 16h10" />
  <path d="M8 12h.01" />
  <rect width="20" height="16" x="2" y="4" rx="2" />


</symbol>
<symbol id="circle-dashed" viewBox="0 0 24 24">
<!-- @license lucide-static v0.563.0 - ISC -->

  <path d="M10.1 2.182a10 10 0 0 1 3.8 0" />
  <path d="M13.9 21.818a10 10 0 0 1-3.8 0" />
  <path d="M17.609 3.721a10 10 0 0 1 2.69 2.7" />
  <path d="M2.182 13.9a10 10 0 0 1 0-3.8" />
  <path d="M20.279 17.609a10 10 0 0 1-2.7 2.69" />
  <path d="M21.818 10.1a10 10 0 0 1 0 3.8" />
  <path d="M3.721 6.391a10 10 0 0 1 2.7-2.69" />
  <path d="M6.391 20.279a10 10 0 0 1-2.69-2.7" />


</symbol>
<symbol id="scale" viewBox="0 0 24 24">
<!-- @license lucide-static v0.563.0 - ISC -->

  <path d="M12 3v18" />
  <path d="m19 8 3 8a5 5 0 0 1-6 0zV7" />
  <path d="M3 7h1a17 17 0 0 0 8-2 17 17 0 0 0 8 2h1" />
  <path d="m5 8 3 8a5 5 0 0 1-6 0zV7" />
  <path d="M7 21h10" />


</symbol>
<symbol id="code" viewBox="0 0 24 24">
<!-- @license lucide-static v0.563.0 - ISC -->

  <path d="m16 18 6-6-6-6" />
  <path d="m8 6-6 6 6 6" />


</symbol>
<symbol id="user-search" viewBox="0 0 24 24">
<!-- @license lucide-static v0.563.0 - ISC -->

  <circle cx="10" cy="7" r="4" />
  <path d="M10.3 15H7a4 4 0 0 0-4 4v2" />
  <circle cx="17" cy="17" r="3" />
  <path d="m21 21-1.9-1.9" />


</symbol>
<symbol id="fingerprint" viewBox="0 0 24 24">
<!-- @license lucide-static v0.563.0 - ISC -->

  <path d="M12 10a2 2 0 0 0-2 2c0 1.02-.1 2.51-.26 4" />
  <path d="M14 13.12c0 2.38 0 6.38-1 8.88" />
  <path d="M17.29 21.02c.12-.6.43-2.3.5-3.02" />
  <path d="M2 12a10 10 0 0 1 18-6" />
  <path d="M2 16h.01" />
  <path d="M21.8 16c.2-2 .131-5.354 0-6" />
  <path d="M5 19.5C5.5 18 6 15 6 12a6 6 0 0 1 .34-2" />
  <path d="M8.65 22c.21-.66.45-1.32.57-2" />
  <path d="M9 6.8a6 6 0 0 1 9 5.2v2" />


</symbol>
<symbol id="car" viewBox="0 0 24 24">
<!-- @license lucide-static v0.563.0 - ISC -->

  <path d="M19 17h2c.6 0 1-.4 1-1v-3c0-.9-.7-1.7-1.5-1.9C18.7 10.6 16 10 16 10s-1.3-1.4-2.2-2.3c-.5-.4-1.1-.7-1.8-.7H5c-.6 0-1.1.4-1.4.9l-1.4 2.9A3.7 3.7 0 0 0 2 12v4c0 .6.4 1 1 1h2" />
  <circle cx="7" cy="17" r="2" />
  <path d="M9 17h6" />
  <circle cx="17" cy="17" r="2" />


</symbol>
<symbol id="cloud-sun" viewBox="0 0 24 24">
<!-- @license lucide-static v0.563.0 - ISC -->

  <path d="M12 2v2" />
  <path d="m4.93 4.93 1.41 1.41" />
  <path d="M20 12h2" />
  <path d="m19.07 4.93-1.41 1.41" />
  <path d="M15.947 12.65a4 4 0 0 0-5.925-4.128" />
  <path d="M13 22H7a5 5 0 1 1 4.9-6H13a3 3 0 0 1 0 6Z" />


</symbol>
<symbol id="wrench" viewBox="0 0 24 24">
<!-- @license lucide-static v0.563.0 - ISC -->

  <path d="M14.7 6.3a1 1 0 0 0 0 1.4l1.6 1.6a1 1 0 0 0 1.4 0l3.106-3.105c.32-.322.863-.22.983.218a6 6 0 0 1-8.259 7.057l-7.91 7.91a1 1 0 0 1-2.999-3l7.91-7.91a6 6 0 0 1 7.057-8.259c.438.12.54.662.219.984z" />


</symbol>
</svg>